<svg xmlns="http://www.w3.org/2000/svg" version="1.0" width="800.000000pt" height="800.000000pt" viewBox="0 0 800.000000 800.000000" preserveAspectRatio="xMidYMid meet">

<g transform="translate(0.000000,800.000000) scale(0.100000,-0.100000)" fill="#865ff2" stroke="none">
<path d="M628 7985 c-53 -20 -95 -53 -128 -103 -61 -93 -81 183 249 -3517 166 -1853 305 -3384 310 -3400 26 -92 110 -194 187 -228 21 -9 615 -178 1319 -374 l1280 -357 150 0 150 0 1230 342 c677 189 1262 352 1300 363 126 37 221 124 260 239 18 56 619 6768 610 6820 -10 59 -54 138 -95 170 -82 65 209 60 -3454 59 -2779 0 -3337 -3 -3368 -14z m6292 -3620 c-163 -1824 -301 -3319 -306 -3324 -5 -4 -583 -167 -1284 -361 -1031 -286 -1287 -353 -1335 -353 -48 0 -318 72 -1334 354 -1079 300 -1275 357 -1282 374 -4 11 -139 1496 -298 3300 -160 1804 -293 3290 -295 3303 l-3 22 3216 0 3217 0 -296 -3315z" fill="#865ff2"/>
<path d="M1132 7443 c-51 -25 -76 -68 -80 -138 -3 -50 0 -66 20 -94 13 -19 39 -44 58 -55 35 -21 45 -21 965 -21 920 0 930 0 965 21 110 64 108 235 -3 288 -32 14 -123 16 -964 16 -834 0 -931 -2 -961 -17z" fill="#865ff2"/>
<path d="M3490 7441 c-54 -28 -80 -74 -80 -140 0 -96 54 -154 154 -166 111 -14 204 35 227 119 20 74 -15 157 -81 191 -43 22 -176 20 -220 -4z" fill="#865ff2"/>
<path d="M1915 6576 c-111 -35 -176 -105 -196 -211 -4 -25 29 -450 97 -1205 57 -641 106 -1185 109 -1210 15 -108 89 -201 189 -239 l57 -21 1344 0 1345 0 0 -32 c-1 -18 -16 -196 -34 -396 -24 -265 -37 -367 -47 -377 -14 -13 -748 -215 -783 -215 -30 0 -770 202 -783 214 -7 7 -20 105 -32 245 -18 197 -25 243 -45 286 -31 68 -97 130 -165 156 -51 19 -72 20 -425 17 -359 -3 -372 -4 -412 -25 -75 -40 -132 -118 -147 -203 -6 -32 84 -1122 99 -1195 19 -94 110 -207 197 -245 74 -32 1671 -470 1715 -470 59 0 1694 455 1755 488 65 35 131 110 146 164 6 24 61 600 121 1281 117 1305 115 1270 75 1348 -21 40 -76 90 -125 113 l-45 21 -1450 5 -1450 5 -22 235 c-12 129 -22 250 -22 268 l-1 32 1549 0 c1073 0 1558 3 1578 11 35 13 70 46 89 81 9 18 27 167 51 433 32 348 35 412 25 452 -25 93 -107 170 -202 192 -71 17 -4103 14 -4155 -3z m4029 -348 c-5 -38 -44 -459 -44 -476 0 -9 -387 -12 -1522 -14 l-1523 -3 -57 -28 c-81 -40 -131 -106 -147 -194 -10 -50 41 -681 60 -755 22 -87 118 -183 207 -208 24 -6 521 -10 1455 -10 779 0 1417 -3 1417 -7 1 -10 -203 -2307 -204 -2310 -1 -1 -359 -101 -796 -222 l-795 -220 -782 218 c-431 119 -788 222 -794 228 -10 10 -98 910 -99 1006 l0 27 260 0 c201 0 260 -3 260 -12 0 -7 9 -110 20 -228 17 -175 25 -223 44 -265 33 -70 98 -139 159 -169 51 -25 835 -241 912 -252 31 -5 133 19 475 111 239 65 455 128 480 140 49 25 128 103 153 152 29 55 37 114 77 564 44 493 44 507 -10 593 -35 55 -103 101 -171 115 -34 8 -482 11 -1389 11 l-1339 0 -6 43 c-5 40 -195 2166 -195 2187 0 7 646 10 1949 10 l1950 0 -5 -32z" fill="#865ff2"/>
</g>
</svg>